inDegrees=no
num_controls=7
num_derivatives=13
num_iterations=101
num_multipliers=7
num_parameters=0
num_slacks=7
num_states=26
objective=5.106408
objective_accelerations=0.108129
objective_balance=0.012762
objective_effort=0.079197
objective_height=4.787558
objective_ligament=0.118762
solver_duration=1113.935145
status=Solve_Succeeded
success=true
DataType=double
version=3
OpenSimVersion=4.4-2022-07-23-0e9fedc
endheader
time	/jointset/ground_pelvis/pelvis_tilt/value	/jointset/ground_pelvis/pelvis_tx/value	/jointset/ground_pelvis/pelvis_ty/value	/jointset/hip_l/hip_flexion_l/value	/jointset/hip_l/hip_adduction_l/value	/jointset/hip_l/hip_rotation_l/value	/jointset/back/lumbar_extension/value	/jointset/patellofemoral_l/patellar_flexion_l/value	/jointset/knee_l/knee_flexion_l/value	/jointset/knee_l/knee_adduction_l/value	/jointset/knee_l/knee_rotation_l/value	/jointset/ankle_l/ankle_angle_l/value	/jointset/subtalar_l/subtalar_angle_l/value	/jointset/ground_pelvis/pelvis_tilt/speed	/jointset/ground_pelvis/pelvis_tx/speed	/jointset/ground_pelvis/pelvis_ty/speed	/jointset/hip_l/hip_flexion_l/speed	/jointset/hip_l/hip_adduction_l/speed	/jointset/hip_l/hip_rotation_l/speed	/jointset/back/lumbar_extension/speed	/jointset/patellofemoral_l/patellar_flexion_l/speed	/jointset/knee_l/knee_flexion_l/speed	/jointset/knee_l/knee_adduction_l/speed	/jointset/knee_l/knee_rotation_l/speed	/jointset/ankle_l/ankle_angle_l/speed	/jointset/subtalar_l/subtalar_angle_l/speed	/forceset/tau_hip_flexion_l	/forceset/tau_hip_adduction_l	/forceset/tau_hip_rotation_l	/forceset/tau_knee_flexion_l	/forceset/tau_ankle_angle_l	/forceset/tau_subtalar_angle_l	/forceset/tau_lumbar_extension	lambda_cid13_p0	lambda_cid13_p1	lambda_cid13_p2	lambda_cid13_p3	lambda_cid13_p4	lambda_cid13_p5	lambda_cid14_p0	/jointset/ground_pelvis/pelvis_tilt/accel	/jointset/ground_pelvis/pelvis_tx/accel	/jointset/ground_pelvis/pelvis_ty/accel	/jointset/hip_l/hip_flexion_l/accel	/jointset/hip_l/hip_adduction_l/accel	/jointset/hip_l/hip_rotation_l/accel	/jointset/back/lumbar_extension/accel	/jointset/patellofemoral_l/patellar_flexion_l/accel	/jointset/knee_l/knee_flexion_l/accel	/jointset/knee_l/knee_adduction_l/accel	/jointset/knee_l/knee_rotation_l/accel	/jointset/ankle_l/ankle_angle_l/accel	/jointset/subtalar_l/subtalar_angle_l/accel	gamma_cid13_p0	gamma_cid13_p1	gamma_cid13_p2	gamma_cid13_p3	gamma_cid13_p4	gamma_cid13_p5	gamma_cid14_p0
0	0.05338579107388536	0.1051375784321393	0.9049391997762948	0.1266917050730164	-0.3521833013602558	-0.2487422945249041	-0.2144974744115991	0.2051547269256849	0.2051547269256735	-0.1369273880828571	-0.1744908068183011	0.09024399430361882	0.09872723405145636	0	0	0	0	0	0	0	0	0	0	0	0	0	0.09421850615360336	-0.08214538573366965	-0.01142929079767601	-0.2605719283527649	0.2332687109975423	-0.0529679180910464	-0.022212166709927	46.21478655323489	17.32570143939065	-5.800122779220381	-50.74807998324363	-448.0569283807239	-77.05558893464203	-26.47172379858384	1.354236233149275	0.9357921321478473	-0.1557547490893712	0.07192595964097034	-0.0240089555672981	1.3639672931208	-2.495840821540765	4.640135740720647	4.640135740714843	1.2553813126168	-0.09610642036240195	3.761981566492616	1.149772355721634	6.498048299176039e-09	2.215903676881648e-07	-9.565005444353623e-08	2.2571340357406e-08	5.46385856303094e-08	2.09932167953479e-07	2.811925288537723e-08
0.01	0.05345400796836606	0.105183330662728	0.9049317291796468	0.1266935946400951	-0.352183807865147	-0.2486713896427214	-0.2146215643026767	0.2053818739777416	0.2053818739777753	-0.1368648175314431	-0.1744911845560833	0.09042867888536057	0.09878436397041107	0.01359466237013456	0.009045461747325002	-0.001489599041658442	0.0004260223619125794	-0.0001058897889426264	0.01411371010223433	-0.02463735352089485	0.04519651714458901	0.04519651714456155	0.01243583745903149	-7.367341339305503e-05	0.03667094263399384	0.01133995430587219	0.09070699089674873	-0.09057758310438777	-0.01050781340735072	-0.2533134323477064	0.2183472065830992	-0.0415627111812412	-0.01985727658058749	42.07546664347724	12.6071290258354	-4.488091470457156	-47.38521189494301	-448.5411777580602	-86.28912792051472	-26.47125479724718	1.354774157927672	0.8731800543585042	-0.1448735107760123	0.03515746094362385	-0.004574849385059981	1.425002034735048	-2.42058891276189	4.424470088285838	4.424470088286201	1.225964494452095	0.03726457172429548	3.579760495122615	1.113179070474124	9.668174630066193e-09	2.846890984400098e-07	-1.147878295802965e-07	2.682592351204683e-08	3.205404896187412e-08	2.376017338787918e-07	3.939303902918088e-08
0.02	0.05365671007034462	0.1053163888824568	0.9049095003867664	0.1267011878480263	-0.3521855124396724	-0.2484613618262785	-0.2149866089880557	0.2060539982785907	0.2060539982785914	-0.1366802326989502	-0.1744922465533233	0.09097209487010155	0.09895230785291531	0.0268970414996465	0.01746119782799521	-0.00295163924648276	0.00114072818295781	-0.0002396139309591298	0.02782458684288342	-0.04819095885769439	0.08899544976748244	0.0889954497674831	0.02440285619428469	-0.0001368518846859381	0.07174628059877577	0.02216279270990571	0.08719547563887405	-0.09900978047515371	-0.009586336016810163	-0.2460549363433218	0.2034257021684074	-0.03015750427156998	-0.01750238645184775	37.9612235660919	7.892519103563183	-3.186233342768459	-44.12432119549897	-448.6365867342739	-95.42090778922889	-26.4697970195825	1.295779585024905	0.809846998816757	-0.1502429817225413	0.1296626514675341	-0.02957582618208184	1.283400620803796	-2.279091184721626	4.360618836381586	4.360618836386896	1.161617567861143	-0.09400743194234465	3.442860632650099	1.046349175353857	1.283830096095635e-08	3.477878291918548e-07	-1.339256047170569e-07	3.108050666668766e-08	9.46951229343883e-09	2.652712998041046e-07	5.066682517298452e-08
0.03	0.05399076241386252	0.1055308931441038	0.9048727200976904	0.1267170244403555	-0.3521887872337584	-0.2481167931315202	-0.2155820242320218	0.2071572172547438	0.2071572172546503	-0.1363784779472516	-0.1744943446731752	0.09185884548595398	0.09922602163406093	0.03984865950859229	0.02537834604399018	-0.004405085133401315	0.002025478972164151	-0.0004306479148175558	0.04102663988978471	-0.0707425757512915	0.1314030792799304	0.1314030792799448	0.03584184190722639	-0.0002635652724218261	0.105386167211828	0.03250138794887938	0.08513684941554645	-0.09370978598874334	-0.009087939128499711	-0.2419020036303486	0.1971237838516713	-0.03247835302182348	-0.01606179619272083	35.7410881910598	9.117615392936232	-3.18556387552474	-42.06498742910092	-448.9915686510581	-92.33333289318101	-26.46734906637039	1.285139733065248	0.7734586973254534	-0.1429935742085204	0.06771617538301936	-0.01618324713362224	1.329259509144566	-2.220769814035653	4.144034902870956	4.144034902869511	1.119138947844245	0.0308498696228133	3.291912436509516	1.015789340401136	1.300501163633692e-08	3.598313102964352e-07	-1.296265778327769e-07	3.253775810423289e-08	-8.067956796873664e-09	2.593716911364118e-07	5.302864048436718e-08
0.04	0.05445238830230693	0.1058227308807771	0.9048213857133383	0.1267416755171904	-0.3521944355802312	-0.2476420735338403	-0.2163984702193822	0.2086771525048284	0.2086771525048269	-0.1359655133636057	-0.1744971392945504	0.09307546692010674	0.0996007562960427	0.0524117504869616	0.03292789283325138	-0.005862458301723512	0.002903625070768012	-0.0007143244045309522	0.05385476743715193	-0.09239710753914818	0.1723387045601673	0.1723387045601686	0.04664482261351912	-0.0002761521876643803	0.1377204442599516	0.04236696887713591	0.08307822319334883	-0.08840979150225403	-0.008589542239836982	-0.2377490709167671	0.1908218655351765	-0.03479920177191972	-0.01462120593288911	33.54320891948657	10.34968813006278	-3.198426703908433	-40.09544356920955	-448.9855856073881	-89.14381026932064	-26.46378235214852	1.218074178909756	0.736326713469879	-0.151028438003264	0.1283417133470668	-0.04810432735307314	1.2086155208971	-2.099674163573455	4.06621798993942	4.066217989939378	1.034416566531358	-0.07118213744357525	3.181738719664234	0.9517463132103928	1.31097962157276e-08	3.708221058412782e-07	-1.248443179171353e-07	3.393733259915759e-08	-2.55013626381527e-08	2.527799345389663e-07	5.520670381982363e-08
0.05	0.05503766011788566	0.1061881207323244	0.9047553984613944	0.1267753408509475	-0.3522034379488987	-0.2470417847085345	-0.2174268871540148	0.2105993598920383	0.2105993598920425	-0.1354477132936565	-0.1745003582983604	0.09460883836378174	0.1000717459619976	0.06458071872320681	0.04007792431034505	-0.007339174426951383	0.003847653325636852	-0.001092615731124015	0.06613193503169987	-0.1131365817956373	0.2118709006331498	0.2118709006331525	0.0568286210138368	-0.0003520552016638837	0.1687307704373494	0.05176320981517973	0.08072236210655082	-0.0861314685855257	-0.007941427793623855	-0.2330322212078228	0.1822774204494037	-0.03379078820120046	-0.01296888653376385	30.81808398293909	10.15771508989112	-2.903770695675201	-37.76475976061992	-449.219784463623	-88.89348831825629	-26.45899558254189	1.207026948528812	0.6935251884135692	-0.1466257918995209	0.0801671077697127	-0.0336878438094788	1.226635944013929	-2.038629417791731	3.861928519441232	3.861928519441471	0.9974190642144229	0.0265179131543234	3.02723093105005	0.9233561178351278	1.370603253456057e-08	3.771582373061792e-07	-1.312968876066297e-07	3.440778431631544e-08	-3.6927416878999e-08	2.596551751780855e-07	5.709570934698864e-08
0.06	0.05574276537632933	0.1066228476633592	0.9046745175297743	0.1268189932125099	-0.3522164224925325	-0.2463208504942322	-0.2186582079034297	0.2129099308606952	0.212909930860694	-0.1348306637222132	-0.1745038738729365	0.09644562334208527	0.1006346566640797	0.07637843906136019	0.0467953087307592	-0.008841194237001438	0.004901030629023166	-0.001510759397593757	0.07798384523747276	-0.1329778704963144	0.250011420844676	0.2500114208446807	0.0664947229114498	-0.0003354663543553947	0.1984031511856452	0.0607511761025722	0.07836650101999586	-0.08385314566881819	-0.007293313347608198	-0.2283153714987594	0.1737329753636519	-0.03278237463049467	-0.01131656713444687	28.11375913448485	9.969410737805916	-2.618050174076954	-35.51884795621461	-449.1306164285444	-88.55765175940336	-26.45278788926666	1.143824599291531	0.6497973021338624	-0.1560891749676949	0.1502115230505891	-0.05607479532840152	1.123564043142268	-1.920037052410952	3.787882817648208	3.787882817648254	0.9308772659904406	-0.05268376518180666	2.914149633843719	0.8700913830801031	1.432296155821217e-08	3.832983829150825e-07	-1.382225027531824e-07	3.483911507440942e-08	-4.810052999982706e-08	2.670974472797968e-07	5.897254401906768e-08
0.07000000000000001	0.0565639071793089	0.1071226761486401	0.9045784453942383	0.1268737311153324	-0.3522338755805772	-0.2454841987940269	-0.2200834645169314	0.2155951230465522	0.2155951230465419	-0.1341196510149971	-0.1745074518946653	0.09857258548852756	0.1012853877828463	0.08778570651980454	0.05310727629055102	-0.01037992287427449	0.006051912785551867	-0.001990441853737152	0.08926650874064315	-0.1519321692062304	0.2867923090216728	0.286792309021672	0.07561127112497278	-0.0003694735637079693	0.2267753856061395	0.06932773795255269	0.07631532840513003	-0.08085941038411887	-0.006687869306717676	-0.2243090670320845	0.1661571203822132	-0.03249189967288387	-0.009835516362538625	25.66202539291799	10.09021659716423	-2.429054665932472	-33.46437733188606	-449.2850175553737	-87.63797773080998	-26.44497907802319	1.129549136585607	0.6124366504383594	-0.1537779642331179	0.09833333971246651	-0.04552761924811875	1.118649820227301	-1.861933830436255	3.587973904755761	3.587973904754898	0.8876049928433646	0.02281157866689221	2.766689612584555	0.8412981489696882	1.362032386598938e-08	3.548392696946843e-07	-1.32877119440207e-07	3.260049501128265e-08	-5.681245871886462e-08	2.520066614640549e-07	5.559674784851456e-08
